<?xml version="1.0" encoding="utf-8"?>
<svg version="1.1" id="Слой_1" xmlns="http://www.w3.org/2000/svg" xmlns:xlink="http://www.w3.org/1999/xlink" x="0px" y="0px"
	 viewBox="0 0 1000 1000" style="enable-background:new 0 0 1000 1000;" xml:space="preserve">
<path d="M852.9,597.3c-36.9,0-74,0-111.3,0c0-4.3,0-8.5,0-12.8c-60.2,0-120.1,0-180.2,0c0-187.4,0-374.6,0-561.9
	c0-0.1,0-0.2-0.1-0.3c-0.1-0.1-0.1-0.1-0.2-0.2c-116.2,0-232.4,0-348.5,0c-0.3,0.3-0.6,0.6-1.1,1.1c0,36.8,0,73.6,0,110.5
	c-10.3,0-20.5,0-30.6,0c-0.4-0.4-0.7-0.7-1.2-1.1c0-3.4,0-6.7,0-10.1c-1.7,0-3.2,0-4.9,0c0,9.2,0,18.4,0,27.5c-1.5,0-2.6,0-3.8,0
	c-0.5,0.5-1,1-1.5,1.5c-1.6,0-3.3,0-4.9,0c-0.4,0.4-0.9,0.9-1.4,1.4c-0.9,0-1.9,0-3,0c0,1.8,0,3.3,0,4.9c0.7,0.1,1.3,0.1,1.8,0.2
	c0.2,0.5,0.3,0.9,0.5,1.4c4.1,0,8.2,0,12.4,0c0,5,0,9.8,0,14.6s-0.2,9.6,0.1,14.2c1.7,0,3.2,0,4.8,0c0-3.5,0.1-6.9,0-10.3
	c0-0.9,0.3-1.6,1.1-2.2c16.4,0,33,0,49.7,0c0,159.4,0,318.5,0,477.4c-8.7,0-17.3,0-25.7,0c-0.6,0.6-1.1,1.1-1.7,1.7c0,0.9,0,2,0,3
	c0.2-0.1,0.3-0.2,0.4-0.3c0.5,0.7,0.9,1.3,1.3,1.9c8.6,0,16.9,0,25.3,0c0.1,0,0.2,0,0.3,0.1c0.1,0.1,0.2,0.2,0.1,0.1
	c0,58.2,0,116.3,0,174.3c-0.6,0.1-1.2,0.1-1.8,0.2c0,19.3,0,38.5,0,57.9c157.4,0,314.6,0,471.7,0c0.3,0.3,0.6,0.6,0.9,0.9
	c0,17.2,0,34.5,0,51.7c-0.4,0.4-0.6,0.6-1.1,1.1c-3.7,0-7.6,0-11.5,0c0,1.8,0,3.3,0,4.9c8.7,0,17.2,0,25.8,0
	c1.6,2.6,1.7,5.4,1.6,8.6c0.4,0.3,1,0.6,1.5,0.9c0,1.5,0,2.6,0,3.7c0.8,0.8,1.6,1.5,2.3,2.3c0.8,0,1.6,0.3,2.1-0.4
	c0.7-0.4,1.4-0.9,1.9-1.2c0-2.9,0-5.5,0-8c0.5-0.4,1-0.8,1.5-1.3c0-1.4,0-2.9,0-4.5c9.7,0,19.2,0,28.7,0c0-1.7,0-3.3,0-4.9
	c-3.6,0-7-0.1-10.4,0c-1,0-1.5-0.3-2.1-1c0-16.1,0-32.2,0-48.4c37.2,0,74.3,0,111.2,0c0.4-0.4,0.8-0.8,1-1c0-99.2,0-198.2,0-297.1
	C853.5,597.9,853.3,597.7,852.9,597.3z M305,27.3c53.7,0,107.3,0,161,0c0,1.1,0,2.2,0,3.1c-0.5,0.5-0.9,1.1-1.8,1
	c-0.8-0.1-1.6,0-2.5,0c-51.9,0-103.8,0-155.8,0c-0.3-0.3-0.6-0.7-0.9-1.1C305,29.5,305,28.4,305,27.3z M300.8,42.9
	c56.2,0,112.3,0,168.6,0c0,0,0.1,0,0.1,0.1c0.1,0.1,0.1,0.2,0.1,0.3c0,4.7,0,9.4,0,14.2c-56.2,0-112.4,0-168.8,0
	C300.8,52.6,300.8,47.8,300.8,42.9z M542.9,350.1c-5.4,0-10.9,0-16.5,0c-0.1-15.8-0.1-31.4-0.1-47.2c5.6,0,11.1,0,16.6,0
	c0.3,0.3,0.5,0.5,0.9,0.9c0.3,0.4,0.1,1,0.1,1.5c0,13.9,0,27.7,0,41.6C543.9,348,544.2,349.3,542.9,350.1z M701.4,625.9
	c0,32,0,63.9,0,95.9c-9.1,0-18.1,0-27.1,0c-0.5,0.5-0.8,0.8-1.2,1.2c0.4,1.4-0.7,3.2,1.2,4.6c8.9,0,17.9,0,27,0
	c0,44.7,0,89.3,0,134.1c-108.5,0-217,0-325.6,0c0-34.5,0-69,0-103.6c10.4,0,20.9,0,31.3,0c0.7-0.7,1.2-1.3,1.8-2c0-0.8,0-1.7,0-2.8
	c-0.5-0.5-1.1-1-2-1.8c-9.9,0-20.1,0-30.2,0c-0.4-0.4-0.6-0.6-0.9-0.9c0-41.5,0-83,0-124.7C484.2,625.9,592.6,625.9,701.4,625.9z
	 M526.3,619.4c0-15.2,0-30.4,0-45.8c5.2-0.3,10.6,0,16-0.1c0,15.3,0,30.4,0,45.9C536.9,619.4,531.7,619.4,526.3,619.4z M367.2,785.5
	c0-9.1,0-18.2,0-27.4c0.6,0,1.2,0,1.9,0c0,9.1,0,18.2,0,27.4C368.5,785.5,367.9,785.5,367.2,785.5z M369.1,791.3
	c0,26.6,0,53.1,0,79.7c-0.7,0-1.2,0-1.9,0c0-26.6,0-53.1,0-79.7C367.9,791.3,368.4,791.3,369.1,791.3z M366.5,751.7
	c0-9.5,0-18.7,0-28.3c1.1,0,2.2,0,3.3,0c0,9.3,0,18.6,0,28C368.9,751.9,367.7,751.4,366.5,751.7z M369.2,535.1c0,7.2,0,13.8,0,20.5
	c-0.5,0.6-1.2,0.1-1.7,0.3c-0.1-0.1-0.2-0.2-0.3-0.3s-0.1-0.2-0.1-0.3c0-6.6,0-13.1,0-19.6C367.7,535,368.4,535.6,369.2,535.1z
	 M367.3,528.9c0-6.8,0-13.5,0-20.4c0.6,0,1.2,0,1.9,0c0,6.8,0,13.5,0,20.4C368.6,528.9,368,528.9,367.3,528.9z M369.2,562.3
	c0,9.6,0,19.2,0,28.8c-0.7,0-1.2,0-1.9,0c0-9.6,0-19.2,0-28.8C368,562.3,368.5,562.3,369.2,562.3z M367.3,716.9c0-30.4,0-60.7,0-91
	c0.7,0,1.2,0,1.9,0c0,30.4,0,60.7,0,91C368.5,716.9,368,716.9,367.3,716.9z M367.2,619.3c0-7.2,0-14.4,0-21.7c36.2,0,72.4,0,108.7,0
	c0,7.2,0,14.4,0,21.7C439.7,619.3,403.5,619.3,367.2,619.3z M481.7,616.7c12.9,0,25.6,0,38.7,0c0,0.9,0,1.7,0,2.6
	c-12.9,0-25.6,0-38.6,0C481.3,618.6,481.6,617.7,481.7,616.7z M481.6,610.2c0-1.5,0-3.1,0-4.7c0-1.6,0-3.3,0-5c5.4,0,10.7,0,16.2,0
	c0,3.3,0,6.4,0,9.7C492.5,610.2,487.2,610.2,481.6,610.2z M507.2,610.3c0-4.2,0-8.3,0-12.7c4.4,0,8.8,0,13.2,0c0,4.1,0,8.2,0,12.6
	C516.1,610.4,511.7,610.2,507.2,610.3z M520.3,590.8c-3.1,0.6-128.4,0.8-144.6,0.3c0-18.2,0-36.4,0-54.8c0.2-0.2,0.5-0.5,1-0.9
	c10,0,20.1,0,30.4,0c0.5-0.6,1-1.2,1.7-2.1c0-0.6,0-1.5,0-2.7c-0.5-0.4-1.1-0.9-2.1-1.7c-9.9,0-20.4,0-30.9,0
	c-0.1-26-0.1-52-0.1-78.3c48.3,0,96.4,0,144.6,0C520.3,497.4,520.3,544.1,520.3,590.8z M701.4,869.7c0,0.4,0,0.7,0,1.2
	c-108.2,0-216.4,0-324.4,0c-0.5-0.3-1-0.6-2.1-1.2C484.3,869.7,592.8,869.7,701.4,869.7z M520.5,444c-49.7,0-99.5,0-149.3,0
	c-0.5,0.7-1,1.3-1.8,2.3c-0.1,18.3-0.1,37.1-0.1,55.8c-0.8,0-1.3,0-1.8,0c-0.5-0.5-0.7-50.2-0.2-60.7c51,0,102,0,153.2,0
	C520.5,442.3,520.5,443,520.5,444z M520.4,434.8c-73.1,0.1-146.2,0.1-219.7,0.1c0-11,0-22,0-33c-1.4,0-2.6,0-4,0
	c-0.3,0.3-0.6,0.6-0.9,0.9c0,10.6,0,21.2,0,31.8c-2.9,0.5-33,0.7-43,0.2c0-123.8,0-247.5,0-371.4c0.2-0.2,0.6-0.6,0.8-0.8
	c89,0,177.9,0,266.8,0C520.4,186.7,520.4,310.7,520.4,434.8z M329.4,758c10.4,0,20.9,0,31.4,0c0,34.6,0,69.1,0,103.6
	c-2.9,0.5-93.2,0.7-104.4,0.2c0-67,0-133.9,0-201.1c0.2-0.2,0.5-0.5,1-0.9c8.4,0,16.8,0,25.4,0c0.5-0.6,1-1.2,1.7-2.1
	c0-0.6,0-1.5,0-2.5c-0.7-0.5-1.9-0.6-2.2-1.8c-8.7,0-17.2,0-25.9,0c-0.1-67.6-0.1-135-0.1-202.8c13.2,0,26.2,0,39.4,0
	c0,10.7,0,21.4,0,32.3c1.7,0,3.3,0,5,0c0-10.7,0-21.4,0-32.2c20.1,0,40,0,60.1,0c0,26,0,52,0,78.2c-10.4,0-20.9,0-30.9,0
	c-0.9,0.4-0.7,0.9-0.9,1.3c-0.4,0.2-0.8,0.3-1.3,0.5c0,0.9,0,1.8,0,3c0.5,0.4,1.1,0.9,2.1,1.7c9.7,0,19.9,0,30,0
	c0.4,0.4,0.6,0.6,1,1c0,71.4,0,142.8,0,214.3c-0.3,0.3-0.6,0.6-0.9,0.9c-10.1,0-20.2,0-30.4,0c-0.5,0.6-1,1.2-1.7,2
	c0,0.8,0,1.8,0,2.8C328.8,756.4,329.1,757.1,329.4,758z M360.5,871c-34.7,0-69.5,0-104.3,0c0-0.4,0-0.8,0-1.2c34.9,0,69.7,0,104.4,0
	C360.8,870.2,360.9,870.6,360.5,871z M268.5,441.4c8.9,0,18,0,27.2,0c0,0.9,0,1.7,0,2.6c-9,0-18,0-27.3,0c-0.2-0.2-0.6-0.6-0.8-0.8
	C267.4,442.2,268,441.9,268.5,441.4z M300.8,444.1c0-0.9,0-1.7,0-2.6c9.8,0,19.5,0,29.4,0c0.5,0.7,0.2,1.6,0.1,2.6
	C320.5,444.1,310.8,444.1,300.8,444.1z M335.4,444c0-0.9,0-1.7,0-2.6c8.4,0,16.8,0,25.3,0c0,0.9,0,1.7,0,2.6
	C352.3,444,343.9,444,335.4,444z M179.9,169.2c0-1.7,0-3.5,0-5.4c0.2-0.2,0.5-0.5,1-0.9c3.2,0.6,6.4-1.4,9.7-0.6
	c1.5-1.3,1.5-1.3,3.2-1.6c0-1.5,0-3.1,0-4.8c-2.2,0-4.5,0-6.5,0c-0.5-0.5-1-1-1.5-1.5c-1.1,0-2.4,0-3.5,0c-0.4-0.4-0.6-0.6-0.9-0.9
	c0-4,0-8.1,0-12.2c0.3-0.3,0.5-0.5,0.9-0.9c11.3,0,22.7,0,33.9,0c0.5-0.5,0.8-0.8,1.1-1.1c0-37.2,0-74.4,0-111.6
	c0-0.1,0.1-0.2,0.2-0.4c27.1,0,54.3,0,81.6,0c0,1.1,0,2.2,0,3.3c-1,0.6-2.5-0.5-3.3,1.7c0,1,0,2.7,0,4.4c-0.5,0.5-1,1-1.4,1.4
	c0,0.7,0,1.5,0,2.2c0.5,0.5,0.9,0.9,1.2,1.2c0,5.3,0,10.6,0,15.9c-14.3,0-28.5,0-42.9,0c0-7.4,0-14.8,0-22c-0.2-0.2-0.3-0.3-0.4-0.4
	c-0.1-0.1-0.2-0.1-0.3-0.1c-7,0-14.1,0-21.4,0c0.1,44.8,0.1,89.5,0.1,134.3C213.7,169.2,196.9,169.2,179.9,169.2z M238.1,40
	c2.6,0,5.2,0,8,0c0,86.6,0,173.2,0,260.1c-2.6,1.4-5.4,0.3-8,0.7c-0.4-0.4-0.6-0.6-1-1c-0.3-0.4-0.1-1-0.1-1.5
	c0-84.8,0-169.5,0-254.3C237.1,42.6,236.5,41.1,238.1,40z M237.1,326.4c0.3-0.3,0.5-0.5,0.9-0.9c2.3,0,4.7,0,7.3,0
	c0.2,0.2,0.6,0.6,0.9,0.9c0,2.7,0,5.3,0,8.1c-3,0-5.9,0-9.1,0C237.1,331.7,237.1,329,237.1,326.4z M249.8,885.8
	c-5.3,0-10.6,0-15.9,0c-0.5-2.9-0.7-35.7-0.2-46.4c5.2,0,10.5,0,16.1,0C249.8,854.9,249.8,870.3,249.8,885.8z M237.2,833.3
	c0-44.7,0-89.5,0-134.4c0.4-0.4,0.6-0.6,0.9-0.9c3.9,0,7.7,0,11.6,0c0,45.4,0,90.7,0,136.3c-1.8,0.1-3.8,0-5.7,0c-2,0-4,0-5.8,0
	C237.8,833.9,237.6,833.7,237.2,833.3z M249.8,691.4c-4.1,0-8.2,0-12.4,0c0,0-0.1-0.1-0.1-0.1c-0.1-0.1-0.1-0.2-0.1-0.3
	c0-10.1,0-20.2,0-30.2c0.3-0.3,0.6-0.6,0.9-0.9c3.7-0.1,7.5-0.1,11.7-0.1C249.8,670.4,249.8,680.8,249.8,691.4z M237.2,653.3
	c0-10.3,0-20.4,0-30.8c0.2-0.2,0.5-0.5,1-0.9c3.7,0,7.6,0,11.5,0c0,10.5,0,21,0,31.7C245.5,653.3,241.4,653.3,237.2,653.3z
	 M249.9,445.9c0,56.6,0,113.5,0,170.7c-4.4,0-8.5,0-12.8,0c0-1.2,0-2.3,0-3.5c0-86.1,0-172.1,0-258.2c0-1.3-0.7-2.9,1.1-3.9
	c2.2,0,4.6,0,7,0c0.3,0.3,0.6,0.6,0.9,0.9c0,29.6,0,59.4,0,89.3c4.9,0,9.7,0,14.4,0c0.5,0.5,1,0.9,1.2,1.1c0.2,1.1-0.5,1.3-0.9,1.9
	c-3,0-6.2,0-9.2,0C251,444.8,250.5,445.3,249.9,445.9z M505.6,885.8c-83.1,0-166.2,0-249.4,0c0-2.8,0-5.5,0-8.2
	c83.1,0,166.2,0,249.4,0C505.6,880.4,505.6,883.1,505.6,885.8z M514.5,882.5c-1.8,0-3.3-0.4-3.3-0.9s1.5-0.9,3.3-0.9
	s3.3,0.4,3.3,0.9S516.3,882.5,514.5,882.5z M536.1,885.8c-4.2,0-8.3,0-12.7,0c0-2.8,0-5.4,0-8.2c4.1,0,8.2,0,12.6,0
	c0,1.2,0.1,2.6,0.1,3.9C536.1,882.9,536.1,884.3,536.1,885.8z M545.9,882.3c-1.6,0-3.2,0-4.8,0c0-0.4,0-0.8,0-1.2c1.6,0,3.2,0,4.8,0
	C545.9,881.5,545.9,881.9,545.9,882.3z M701.5,885.8c-49.7,0-99.3,0-149.1,0c0-2.8,0-5.5,0-8.3c49.6,0,99.1,0,149,0
	c0,1.2,0.1,2.6,0.1,4S701.5,884.3,701.5,885.8z M701.5,600.7c0,5.4,0,10.8,0,16.3c0,1,0.1,1.9-1.1,2.5c-50.3,0-100.8,0-151.5,0
	c0-16.8,0-33.6,0-50.4c-0.7-0.7-1.3-1.3-2-2c-6.8,0-13.7,0-20.6,0c0-70.6,0-141.2,0-211.8c7.4,0,14.8,0,22.1,0
	c0.6-3.1,0.8-46.6,0.3-57.3c-7.4,0-14.8,0-22.3,0c0-68.1,0-136.1,0-204.3c7.1,0,14.3,0,21.3,0c0.5-0.5,0.8-0.8,1-1
	c0-19.2,0-38.4,0-57.6c-9.1,0-18.2,0-27.1,0c-1.1,0.6-1.1,1.5-1.1,2.5c0,6.1,0,12.2,0,18.4c0,0.5,0,0.9,0,1.5c-15.1,0-30.1,0-45.2,0
	c0-8.6,0-17.2,0-25.6c-0.4-0.4-0.6-0.6-1-1c-0.9,0-1.9,0-3,0c-0.5-1.4-0.6-2.5,0.7-3.6c27.8,0,55.7,0,83.5,0
	c0.3,0.3,0.5,0.5,0.9,0.9c0,186.9,0,374.1,0,561.5c59.8,0,119.2,0,178.8,0c0,35.6,0,71.1,0,106.7c-0.7,0-1.2,0-1.7,0
	c-0.5-0.6-0.1-1.2-0.3-1.7c-1-0.2-1.5-0.7-1.7-1.8c-8.3,0-16.6,0-25,0c0-12.2,0-24.3,0-36.5c7.4,0,14.8,0,22.2,0
	c0.5-3,0.7-49.8,0.2-58.7c-9,0-18.1,0-27.2,0C701.2,598.6,701.5,599.7,701.5,600.7z M526.3,87.1c0-15.6,0-31.3,0-47.1
	c5.2,0,10.5,0,16,0c0,15.5,0,30.9,0,46.2c-0.3,0.3-0.5,0.5-0.9,0.9C536.5,87.1,531.5,87.1,526.3,87.1z M706.5,750.1
	c0-7.4,0-14.8,0-22.2c2.8-0.5,19.3-0.6,28.7-0.2c0,7.4,0,14.8,0,22.4C725.6,750.1,716.1,750.1,706.5,750.1z M726.8,756.7
	c0,20.7,0,41.3,0,61.9c-2,0-4,0-6,0c-0.5-3-0.7-49.7-0.2-61.9C722.6,756.7,724.5,756.7,726.8,756.7z M726.9,702.7c2.7,0,5.3,0,8.2,0
	c0,6.4,0,12.7,0,19.1c-9.4,0-19,0-28.7,0c0-7.5,0-14.8,0-22.4c6.4,0,12.9,0,19.5,0C727.4,699.9,726.6,701.4,726.9,702.7z
	 M706.5,756.6c2.8,0,5.5,0,8.1,0c0.3,0.3,0.6,0.6,0.9,0.9c0,20,0,40.1,0,60.3c-0.2,0.2-0.6,0.5-0.9,0.9c-2.6,0-5.3,0-8.1,0
	C706.5,798,706.5,777.5,706.5,756.6z M706.4,649.7c0-15.5,0-30.9,0-46.2c0.6-1,1.4-1.1,2.4-1.1c4.5,0,8.9,0,13.6,0
	c0,15.7,0,31.4,0,47.2C717.3,649.7,712,649.7,706.4,649.7z M729.9,945.9c-0.2-0.2-0.4-0.4-0.5-0.5c-0.2-0.2-0.4-0.4-0.4-0.5
	c0.2-2.8-1.4-5.4-0.5-8.4c-0.7-0.3-1.4-0.5-1.5-0.6c-0.2-1.3-0.2-1.9-0.3-2.5c-1.5,0-3,0-4.8,0c0,1.1,0,2.2,0,3.2
	c-0.6,0.1-0.9,0.2-1.5,0.4c0,2.7,0,5.5,0,8.5c-3.1-1.4-6.1-0.6-9-0.9c-0.1,0.5-0.2,0.9-0.3,1.3c-1.5,0-3.1,0-4.8,0
	c0-11.7,0-23.3,0-34.9c0.3-0.3,0.5-0.5,0.9-0.9c7,0,14.2,0,21.5,0c0-18.9,0-37.7,0-56.5c-7.1,0-14.3,0-21.3,0
	c-0.5-0.5-0.8-0.8-1.1-1.1c0-9.6,0-19.1,0-28.7c8.9,0,17.7,0,26.5,0c0.7-1.1-0.1-2.4,0.6-3.5c0.5,0,1.1,0,1.7,0
	c0.1,41.8,0.1,83.7,0.1,125.6C733.4,945.9,731.6,945.9,729.9,945.9z M706.5,858.4c5.2,0,10.5,0,16.1,0c0,15.5,0,30.9,0,46.4
	c-5.3,0-10.6,0-15.9,0C706.2,901.9,706,869,706.5,858.4z M735.3,815.1c-0.7,0-1.2,0-1.9,0c0-19.5,0-39,0-58.5c0.7,0,1.2,0,1.9,0
	C735.3,776.1,735.3,795.6,735.3,815.1z M741.7,612.7c0.2-0.2,0.5-0.5,0.9-0.9c32.2,0,64.6,0,97.1,0c0,89.6,0,179.3,0,269.1
	c-32.4,0-64.7,0-97.1,0c-0.2-0.2-0.5-0.5-0.8-0.8c0-50.7,0-101.4,0-152.5c8.9,0,17.7,0,26.6,0c0-1.9,0-3.6,0-5.6
	c-8.8,0-17.7,0-26.7,0C741.7,685.4,741.7,649,741.7,612.7z M849.1,604c-0.3,0.6-0.8,1.1-0.7,1.8c0.1,0.8,0,1.6,0,2.5
	c0,92.7,0,185.4,0,278c0,1.2,0,2.3,0,3.6c-35.3,0-70.5,0-105.8,0c-0.2-0.2-0.6-0.6-0.9-0.9c-0.1-1.1-0.4-2.4,1.1-3.2
	c33.8,0,67.8,0,101.9,0c0.1-93,0.1-186,0.1-279c-34.1,0-68.1,0-102,0c-1.5-2-1.4-2.4-0.1-4.2c35.2,0,70.4,0,105.5,0
	c0.3,0.3,0.6,0.6,0.8,0.8C849,603.6,849.2,603.9,849.1,604z"/>
<path d="M329.4,442.1c-9.2,0-18.4,0-28,0c0.1,0.6-0.2,1,0.3,1.2c9.7,0.4,27.5,0.3,28-0.2C329.7,442.8,329.9,442.4,329.4,442.1z"/>
<ellipse cx="368.2" cy="737.4" rx="1.4" ry="18.4"/>
</svg>
